<svg xmlns="http://www.w3.org/2000/svg" fill="none" viewBox="0 0 128 128">
    <path d="M32.448 109V19.4H71.36C76.992 19.4 81.8987 20.3813 86.08 22.344C90.2613 24.3067 93.504 27.08 95.808 30.664C98.112 34.248 99.264 38.472 99.264 43.336V44.872C99.264 50.248 97.984 54.6 95.424 57.928C92.864 61.256 89.7067 63.688 85.952 65.224V67.528C89.3653 67.6987 92.0107 68.8933 93.888 71.112C95.7653 73.2453 96.704 76.104 96.704 79.688V109H79.808V82.12C79.808 80.072 79.2533 78.408 78.144 77.128C77.12 75.848 75.3707 75.208 72.896 75.208H49.344V109H32.448ZM49.344 59.848H69.568C73.5787 59.848 76.6933 58.7813 78.912 56.648C81.216 54.4293 82.368 51.528 82.368 47.944V46.664C82.368 43.08 81.2587 40.2213 79.04 38.088C76.8213 35.8693 73.664 34.76 69.568 34.76H49.344V59.848Z" fill="white"/>
    <style>
        path { fill: #000; }
        @media (prefers-color-scheme: dark) {
            path { fill: #FFF; }
        }
    </style>
</svg>





